<svg version="1.1" id="Layer_1" xmlns="http://www.w3.org/2000/svg" xmlns:xlink="http://www.w3.org/1999/xlink" x="0px" y="0px"
	 width="100%" viewBox="0 0 398 296" enable-background="new 0 0 398 296" xml:space="preserve">
<path fill="#FDFDFD" opacity="1.000000" stroke="none" 
	d="
M220.000000,297.000000 
	C146.666687,297.000000 73.833359,297.000000 1.000029,297.000000 
	C1.000020,198.333359 1.000020,99.666725 1.000010,1.000069 
	C133.666611,1.000046 266.333221,1.000046 398.999878,1.000023 
	C398.999939,99.666595 398.999939,198.333191 398.999969,296.999878 
	C339.500000,297.000000 280.000000,297.000000 220.000000,297.000000 
M73.006966,271.944794 
	C73.607780,271.903320 74.208603,271.861847 74.809425,271.820404 
	C74.490448,271.350525 74.171463,270.880646 73.877304,269.822906 
	C73.633537,269.529968 73.389771,269.237061 73.131538,268.236145 
	C72.191971,266.660950 71.252403,265.085754 70.288330,262.865967 
	C70.052177,262.275787 69.816032,261.685608 69.666298,260.526093 
	C69.388802,260.030304 69.111305,259.534515 68.885880,258.375275 
	C68.775368,257.948730 68.664856,257.522217 68.735626,256.182648 
	C68.646614,253.083633 68.557610,249.984604 68.728874,246.190323 
	C68.783737,245.453140 68.838593,244.715958 69.312904,243.564972 
	C69.429787,243.015594 69.546677,242.466232 70.015915,241.276108 
	C73.855278,229.867432 81.425369,221.051422 89.983910,213.017273 
	C108.489037,195.645966 130.075363,182.755905 152.381195,171.062164 
	C207.854782,141.980408 266.447754,120.643097 325.984985,101.698532 
	C332.754883,99.544380 339.527924,97.400246 346.299530,95.251457 
	C345.274017,93.968300 344.305206,93.581032 343.438568,93.742447 
	C334.524933,95.402596 325.579987,96.937088 316.733948,98.910744 
	C261.151184,111.311882 205.862213,124.833649 152.034531,143.674072 
	C124.815445,153.201141 98.037437,163.804611 73.943146,180.024139 
	C62.419064,187.781799 51.716297,196.497681 45.222702,210.051193 
	C44.596237,212.060669 43.969772,214.070145 43.082535,216.807846 
	C42.875286,218.574249 42.668037,220.340652 42.003696,222.560532 
	C42.135853,224.006470 42.268009,225.452423 42.267635,227.652649 
	C42.606354,229.413177 42.945076,231.173721 43.128555,233.662384 
	C43.954624,235.630493 44.780693,237.598602 45.692936,240.256317 
	C48.875004,245.149841 52.057068,250.043350 55.299458,255.558990 
	C56.184296,256.401215 57.069134,257.243439 58.202168,258.701172 
	C60.778271,261.146423 63.354374,263.591644 66.096947,266.647278 
	C67.080383,267.377563 68.063812,268.107819 69.353539,269.362701 
	C69.692909,269.572754 70.032280,269.782837 70.414963,269.954163 
	C70.414963,269.954163 70.389534,269.902130 70.628265,270.397614 
	C71.262634,270.775909 71.897011,271.154175 73.006966,271.944794 
M294.368561,130.124557 
	C293.955566,130.260422 293.542542,130.396271 292.534424,130.349106 
	C291.845245,130.748627 291.156097,131.148163 289.961731,131.530304 
	C289.648346,131.646866 289.334930,131.763428 288.617981,131.595444 
	C287.949432,131.970978 287.280884,132.346512 285.835236,132.753067 
	C283.917450,133.298050 281.984497,133.795090 280.084076,134.395065 
	C242.822632,146.159027 205.553467,157.938889 170.328323,175.134628 
	C165.221970,177.627396 160.345352,181.201859 156.385269,185.271179 
	C151.826172,189.955994 150.521317,196.182739 153.879959,202.332764 
	C157.153809,208.327530 162.995560,210.675018 169.182449,209.158615 
	C175.838913,207.527100 182.620636,205.080872 188.417236,201.488663 
	C219.076935,182.488708 249.443497,163.015701 280.580780,143.768936 
	C281.850189,142.936569 283.119598,142.104202 285.031433,141.130524 
	C285.976898,140.582321 286.922363,140.034134 288.513824,139.558777 
	C289.746399,138.751907 290.979004,137.945038 292.879913,137.019775 
	C293.872498,136.484985 294.865051,135.950195 296.499695,135.526215 
	C297.740356,134.732285 298.980988,133.938354 300.813446,133.054489 
	C301.167145,132.876495 301.520844,132.698502 302.530243,132.557953 
	C303.813049,131.794235 305.095886,131.030533 306.736115,130.270691 
	C306.736115,130.270691 307.014648,130.046677 307.773376,130.112564 
	C312.103699,128.140030 316.434021,126.167503 320.764343,124.194977 
	C320.584381,123.665718 320.404388,123.136459 320.224426,122.607208 
	C313.370148,124.659508 306.515839,126.711815 298.995758,128.778839 
	C298.365021,128.975891 297.734314,129.172958 296.523926,129.208359 
	C296.024261,129.512177 295.524567,129.816010 294.368561,130.124557 
M176.500076,46.183517 
	C148.916077,46.183517 121.332092,46.183517 93.497002,46.183517 
	C93.497002,79.073235 93.497002,111.281754 93.497002,143.444321 
	C94.087440,143.566391 94.449577,143.767349 94.712051,143.677414 
	C108.232170,139.045242 121.774574,134.473068 135.206848,129.597656 
	C136.491333,129.131439 137.826370,126.780357 137.873306,125.265129 
	C138.131012,116.945564 137.994308,108.613808 137.993454,100.286232 
	C137.992996,95.702843 137.993378,91.119446 137.993378,86.083069 
	C180.489441,86.083069 222.226990,86.083069 264.274963,86.083069 
	C264.274963,72.573715 264.274963,59.535683 264.274963,46.183521 
	C235.086823,46.183521 206.293457,46.183521 176.500076,46.183517 
M131.278351,279.477539 
	C133.389572,279.477539 135.500793,279.477539 137.775391,279.477539 
	C137.775391,248.884979 137.775391,219.005859 137.775391,189.146423 
	C137.235748,189.067200 136.835739,188.871872 136.619492,188.996216 
	C120.332756,198.358978 105.343933,209.249985 94.836426,225.241684 
	C93.824432,226.781845 93.312721,228.929230 93.296516,230.801056 
	C93.168274,245.613220 93.206551,260.426910 93.228745,275.240112 
	C93.230637,276.504028 93.486855,277.767578 93.673935,279.479736 
	C106.095901,279.479736 118.212044,279.479736 131.278351,279.477539 
z"/>
<path fill="#060606" opacity="1.000000" stroke="none" 
	d="
M177.000092,46.183517 
	C206.293457,46.183521 235.086823,46.183521 264.274963,46.183521 
	C264.274963,59.535683 264.274963,72.573715 264.274963,86.083069 
	C222.226990,86.083069 180.489441,86.083069 137.993378,86.083069 
	C137.993378,91.119446 137.992996,95.702843 137.993454,100.286232 
	C137.994308,108.613808 138.131012,116.945564 137.873306,125.265129 
	C137.826370,126.780357 136.491333,129.131439 135.206848,129.597656 
	C121.774574,134.473068 108.232170,139.045242 94.712051,143.677414 
	C94.449577,143.767349 94.087440,143.566391 93.497002,143.444321 
	C93.497002,111.281754 93.497002,79.073235 93.497002,46.183517 
	C121.332092,46.183517 148.916077,46.183517 177.000092,46.183517 
z"/>
<path fill="#080808" opacity="1.000000" stroke="none" 
	d="
M45.793903,209.660248 
	C51.716297,196.497681 62.419064,187.781799 73.943146,180.024139 
	C98.037437,163.804611 124.815445,153.201141 152.034531,143.674072 
	C205.862213,124.833649 261.151184,111.311882 316.733948,98.910744 
	C325.579987,96.937088 334.524933,95.402596 343.438568,93.742447 
	C344.305206,93.581032 345.274017,93.968300 346.299530,95.251457 
	C339.527924,97.400246 332.754883,99.544380 325.984985,101.698532 
	C266.447754,120.643097 207.854782,141.980408 152.381195,171.062164 
	C130.075363,182.755905 108.489037,195.645966 89.983910,213.017273 
	C81.425369,221.051422 73.855278,229.867432 69.567764,241.606171 
	C69.044228,242.617096 68.968842,243.297928 68.893456,243.978775 
	C68.838593,244.715958 68.783737,245.453140 68.249283,246.672409 
	C68.031242,250.468216 68.292801,253.781952 68.554352,257.095673 
	C68.664856,257.522217 68.775368,257.948730 68.645905,258.853882 
	C68.797249,259.920166 69.188560,260.507782 69.579880,261.095428 
	C69.816032,261.685608 70.052177,262.275787 70.215607,263.653229 
	C70.219139,266.291290 70.295395,268.142120 70.371643,269.992920 
	C70.032280,269.782837 69.692909,269.572754 69.189636,268.762207 
	C67.993988,267.453430 66.962234,266.745148 65.930481,266.036896 
	C63.354374,263.591644 60.778271,261.146423 58.096241,258.058960 
	C57.073257,256.590088 56.156200,255.763474 55.239136,254.936859 
	C52.057068,250.043350 48.875004,245.149841 45.762482,239.525269 
	C44.982613,236.840912 44.133205,234.887573 43.283798,232.934250 
	C42.945076,231.173721 42.606354,229.413177 42.575928,227.055252 
	C42.743076,225.007584 42.601933,223.557327 42.460785,222.107056 
	C42.668037,220.340652 42.875286,218.574249 43.558556,216.359985 
	C44.621021,213.828171 45.207462,211.744217 45.793903,209.660248 
z"/>
<path fill="#060606" opacity="1.000000" stroke="none" 
	d="
M130.803268,279.478638 
	C118.212044,279.479736 106.095901,279.479736 93.673935,279.479736 
	C93.486855,277.767578 93.230637,276.504028 93.228745,275.240112 
	C93.206551,260.426910 93.168274,245.613220 93.296516,230.801056 
	C93.312721,228.929230 93.824432,226.781845 94.836426,225.241684 
	C105.343933,209.249985 120.332756,198.358978 136.619492,188.996216 
	C136.835739,188.871872 137.235748,189.067200 137.775391,189.146423 
	C137.775391,219.005859 137.775391,248.884979 137.775391,279.477539 
	C135.500793,279.477539 133.389572,279.477539 130.803268,279.478638 
z"/>
<path fill="#090909" opacity="1.000000" stroke="none" 
	d="
M307.014648,130.046677 
	C307.014648,130.046677 306.736115,130.270691 306.215088,130.173141 
	C304.420898,130.890564 303.147736,131.705551 301.874573,132.520508 
	C301.520844,132.698502 301.167145,132.876495 300.183594,133.036163 
	C298.321716,133.817032 297.089661,134.616226 295.857635,135.415405 
	C294.865051,135.950195 293.872498,136.484985 292.209198,137.009491 
	C290.314911,137.828125 289.091370,138.657028 287.867828,139.485931 
	C286.922363,140.034134 285.976898,140.582321 284.360962,141.115479 
	C282.430878,141.969193 281.171265,142.837921 279.911682,143.706665 
	C249.443497,163.015701 219.076935,182.488708 188.417236,201.488663 
	C182.620636,205.080872 175.838913,207.527100 169.182449,209.158615 
	C162.995560,210.675018 157.153809,208.327530 153.879959,202.332764 
	C150.521317,196.182739 151.826172,189.955994 156.385269,185.271179 
	C160.345352,181.201859 165.221970,177.627396 170.328323,175.134628 
	C205.553467,157.938889 242.822632,146.159027 280.084076,134.395065 
	C281.984497,133.795090 283.917450,133.298050 286.566162,132.852203 
	C287.871918,132.594208 288.446716,132.237106 289.021545,131.880005 
	C289.334930,131.763428 289.648346,131.646866 290.524139,131.686569 
	C291.767548,131.405930 292.448547,130.969040 293.129547,130.532135 
	C293.542542,130.396271 293.955566,130.260422 294.843140,130.338104 
	C295.912994,130.157761 296.508270,129.763885 297.103577,129.369995 
	C297.734314,129.172958 298.365021,128.975891 299.731232,128.880005 
	C303.355743,128.354248 306.244812,127.727348 309.705261,126.976456 
	C308.476501,128.378601 307.745575,129.212631 307.014648,130.046677 
z"/>
<path fill="#434343" opacity="1.000000" stroke="none" 
	d="
M307.394012,130.079620 
	C307.745575,129.212631 308.476501,128.378601 309.705261,126.976456 
	C306.244812,127.727348 303.355743,128.354248 300.064148,128.872635 
	C306.515839,126.711815 313.370148,124.659508 320.224426,122.607208 
	C320.404388,123.136459 320.584381,123.665718 320.764343,124.194977 
	C316.434021,126.167503 312.103699,128.140030 307.394012,130.079620 
z"/>
<path fill="#393939" opacity="1.000000" stroke="none" 
	d="
M68.644989,256.639160 
	C68.292801,253.781952 68.031242,250.468216 68.119141,247.020050 
	C68.557610,249.984604 68.646614,253.083633 68.644989,256.639160 
z"/>
<path fill="#373737" opacity="1.000000" stroke="none" 
	d="
M43.206177,233.298309 
	C44.133205,234.887573 44.982613,236.840912 45.719391,239.180481 
	C44.780693,237.598602 43.954624,235.630493 43.206177,233.298309 
z"/>
<path fill="#373737" opacity="1.000000" stroke="none" 
	d="
M45.508301,209.855713 
	C45.207462,211.744217 44.621021,213.828171 43.688942,215.995880 
	C43.969772,214.070145 44.596237,212.060669 45.508301,209.855713 
z"/>
<path fill="#373737" opacity="1.000000" stroke="none" 
	d="
M70.393303,269.973541 
	C70.295395,268.142120 70.219139,266.291290 70.227859,263.975525 
	C71.252403,265.085754 72.191971,266.660950 72.643845,268.643066 
	C71.567276,269.334015 70.978401,269.618073 70.389526,269.902130 
	C70.389534,269.902130 70.414963,269.954163 70.393303,269.973541 
z"/>
<path fill="#373737" opacity="1.000000" stroke="none" 
	d="
M42.232243,222.333801 
	C42.601933,223.557327 42.743076,225.007584 42.642193,226.678101 
	C42.268009,225.452423 42.135853,224.006470 42.232243,222.333801 
z"/>
<path fill="#434343" opacity="1.000000" stroke="none" 
	d="
M280.246216,143.737793 
	C281.171265,142.837921 282.430878,141.969193 284.039734,141.186142 
	C283.119598,142.104202 281.850189,142.936569 280.246216,143.737793 
z"/>
<path fill="#434343" opacity="1.000000" stroke="none" 
	d="
M288.190826,139.522354 
	C289.091370,138.657028 290.314911,137.828125 291.875031,137.068695 
	C290.979004,137.945038 289.746399,138.751907 288.190826,139.522354 
z"/>
<path fill="#434343" opacity="1.000000" stroke="none" 
	d="
M296.178650,135.470810 
	C297.089661,134.616226 298.321716,133.817032 299.887695,133.081131 
	C298.980988,133.938354 297.740356,134.732285 296.178650,135.470810 
z"/>
<path fill="#434343" opacity="1.000000" stroke="none" 
	d="
M302.202393,132.539246 
	C303.147736,131.705551 304.420898,130.890564 306.036377,130.171204 
	C305.095886,131.030533 303.813049,131.794235 302.202393,132.539246 
z"/>
<path fill="#373737" opacity="1.000000" stroke="none" 
	d="
M55.269302,255.247925 
	C56.156200,255.763474 57.073257,256.590088 57.972145,257.751190 
	C57.069134,257.243439 56.184296,256.401215 55.269302,255.247925 
z"/>
<path fill="#373737" opacity="1.000000" stroke="none" 
	d="
M66.013718,266.342102 
	C66.962234,266.745148 67.993988,267.453430 69.036484,268.499878 
	C68.063812,268.107819 67.080383,267.377563 66.013718,266.342102 
z"/>
<path fill="#434343" opacity="1.000000" stroke="none" 
	d="
M288.819763,131.737732 
	C288.446716,132.237106 287.871918,132.594208 286.954712,132.836685 
	C287.280884,132.346512 287.949432,131.970978 288.819763,131.737732 
z"/>
<path fill="#393939" opacity="1.000000" stroke="none" 
	d="
M69.103180,243.771881 
	C68.968842,243.297928 69.044228,242.617096 69.391586,241.926544 
	C69.546677,242.466232 69.429787,243.015594 69.103180,243.771881 
z"/>
<path fill="#434343" opacity="1.000000" stroke="none" 
	d="
M292.831970,130.440613 
	C292.448547,130.969040 291.767548,131.405930 290.776733,131.695267 
	C291.156097,131.148163 291.845245,130.748627 292.831970,130.440613 
z"/>
<path fill="#393939" opacity="1.000000" stroke="none" 
	d="
M69.623093,260.810760 
	C69.188560,260.507782 68.797249,259.920166 68.619865,259.185608 
	C69.111305,259.534515 69.388802,260.030304 69.623093,260.810760 
z"/>
<path fill="#434343" opacity="1.000000" stroke="none" 
	d="
M296.813751,129.289185 
	C296.508270,129.763885 295.912994,130.157761 295.171265,130.335739 
	C295.524567,129.816010 296.024261,129.512177 296.813751,129.289185 
z"/>
<path fill="#080808" opacity="1.000000" stroke="none" 
	d="
M70.508896,270.149872 
	C70.978401,269.618073 71.567276,269.334015 72.651077,268.997070 
	C73.389771,269.237061 73.633537,269.529968 73.523598,270.384277 
	C72.957054,271.141235 72.744225,271.336853 72.531387,271.532471 
	C71.897011,271.154175 71.262634,270.775909 70.508896,270.149872 
z"/>
<path fill="#080808" opacity="1.000000" stroke="none" 
	d="
M73.511185,270.678223 
	C74.171463,270.880646 74.490448,271.350525 74.809425,271.820374 
	C74.208603,271.861847 73.607780,271.903320 72.769180,271.738647 
	C72.744225,271.336853 72.957054,271.141235 73.511185,270.678223 
z"/>
</svg>